<svg aria-hidden="true" style="position: absolute; width: 0; height: 0; overflow: hidden;" version="1.1" xmlns="http://www.w3.org/2000/svg" xmlns:xlink="http://www.w3.org/1999/xlink">
<defs>
<symbol id="i-cat-fruit" viewBox="0 0 32 32">
<path fill="none" stroke-linejoin="miter" stroke-linecap="butt" stroke-miterlimit="4" stroke-width="1.6" d="M20.773 7.178c-1.316 0.138-2.752 0.568-4.278 1.347l-0.42 0.214-0.415-0.213c-1.524-0.782-2.955-1.213-4.267-1.351-3.283-0.345-6.076 1.152-7.583 4.128-0.525 1.036-0.867 2.214-1.001 3.476-0.289 2.703 0.397 6.088 1.746 9.063 0.831 1.828 1.906 3.49 3.152 4.729 1.183 1.176 2.517 1.959 3.92 2.106 0.847 0.089 1.731-0.050 2.638-0.472 1.236-0.584 2.228-0.618 3.459 0 0.904 0.421 1.787 0.561 2.629 0.473 1.409-0.147 2.749-0.93 3.942-2.108 1.256-1.239 2.343-2.904 3.188-4.737 1.371-2.973 2.082-6.352 1.815-9.050-0.125-1.266-0.457-2.444-0.972-3.477-1.481-2.973-4.271-4.473-7.552-4.131z"></path>
<path d="M24.776 14.388c-0.14 0.723-0.84 1.195-1.563 1.054s-1.195-0.84-1.054-1.563c0.14-0.723 0.84-1.195 1.563-1.054s1.195 0.84 1.054 1.563z"></path>
<path fill="none" stroke-linejoin="round" stroke-linecap="round" stroke-miterlimit="4" stroke-width="1.6" d="M20.654 24.198c2.309-1.803 3.404-4.091 3.287-6.864"></path>
<path fill="none" stroke-linejoin="round" stroke-linecap="round" stroke-miterlimit="4" stroke-width="1.6" d="M15.833 8.659c0.205-2.581 0.991-4.33 2.357-5.247"></path>
</symbol>
<symbol id="i-cat-health" viewBox="0 0 32 32">
<path fill="none" stroke-linejoin="round" stroke-linecap="butt" stroke-miterlimit="4" stroke-width="1.6" d="M8.219 2.667h15.429v5.143h-15.429v-5.143z"></path>
<path fill="none" stroke-linejoin="miter" stroke-linecap="butt" stroke-miterlimit="4" stroke-width="1.6" d="M10.148 7.81h11.571v3.857h-11.571v-3.857z"></path>
<path fill="none" stroke-linejoin="miter" stroke-linecap="butt" stroke-miterlimit="4" stroke-width="1.6" d="M8.267 11.667h15.333c0.736 0 1.333 0.597 1.333 1.333v15.333c0 0.736-0.597 1.333-1.333 1.333h-15.333c-0.736 0-1.333-0.597-1.333-1.333v-15.333c0-0.736 0.597-1.333 1.333-1.333z"></path>
<path fill="none" stroke-linejoin="miter" stroke-linecap="butt" stroke-miterlimit="4" stroke-width="1.6" d="M16.6 16.324l0.533 3.143 2.61 0 0.533 1.867-3.143 0.533 0 2.61-1.867 0.533-0.534-3.143-2.609 0-0.533-1.867 3.143-0.534 0-2.609 1.867-0.533z"></path>
</symbol>
<symbol id="i-cat-hmr" viewBox="0 0 32 32">
<path fill="none" stroke-linejoin="miter" stroke-linecap="butt" stroke-miterlimit="4" stroke-width="1.6" d="M20.381 27.364v1.589c0 0.736-0.488 1.333-1.089 1.333h-7.156c-0.601 0-1.089-0.597-1.089-1.333v-1.589"></path>
<path fill="none" stroke-linejoin="miter" stroke-linecap="butt" stroke-miterlimit="4" stroke-width="1.6" d="M15.824 16.695c1.283-0.59 2.725-0.886 4.325-0.886 5.59 0 7.433 5.54 7.433 4.8"></path>
<path fill="none" stroke-linejoin="miter" stroke-linecap="butt" stroke-miterlimit="4" stroke-width="1.6" d="M17.765 18.471c0.676-0.183 1.415-0.274 2.217-0.274 3.543 0 4.536 2.125 4.536 2.439"></path>
<path fill="none" stroke-linejoin="miter" stroke-linecap="butt" stroke-miterlimit="4" stroke-width="1.6" d="M3.497 20.635c2.003-3.2 4.868-4.8 8.594-4.8 5.59 0 7.273 4.202 7.071 4.612"></path>
<path fill="none" stroke-linejoin="miter" stroke-linecap="butt" stroke-miterlimit="4" stroke-width="1.6" d="M6.877 20.601c1.002-1.586 2.685-2.379 5.047-2.379 3.543 0 4.711 2.746 4.711 2.379 0-0.245-3.253-0.245-9.758 0z"></path>
<path fill="none" stroke-linejoin="round" stroke-linecap="round" stroke-miterlimit="4" stroke-width="1.6" d="M29.062 20.635c-2.232 3.565-4.872 5.808-7.92 6.729h-10.527c-4.129-1.634-6.779-3.877-7.948-6.729h26.396z"></path>
<path fill="none" stroke-linejoin="round" stroke-linecap="round" stroke-miterlimit="4" stroke-width="1.6" d="M7.596 6.826v9.771"></path>
<path fill="none" stroke-linejoin="round" stroke-linecap="round" stroke-miterlimit="4" stroke-width="1.6" d="M12.167 6.826v8.983"></path>
<path fill="none" stroke-linejoin="round" stroke-linecap="round" stroke-miterlimit="4" stroke-width="1.6" d="M9.881 6.826v8.983"></path>
<path fill="none" stroke-linejoin="round" stroke-linecap="round" stroke-miterlimit="4" stroke-width="1.6" d="M6.476 7.365h20.317"></path>
<path fill="none" stroke-linejoin="round" stroke-linecap="round" stroke-miterlimit="4" stroke-width="1.6" d="M6.519 4.892l20.274-2.225"></path>
</symbol>
<symbol id="i-cat-living" viewBox="0 0 32 32">
<path fill="none" stroke-linejoin="miter" stroke-linecap="square" stroke-miterlimit="4" stroke-width="1.6" d="M4.364 20.667h23.273"></path>
<path fill="none" stroke-linejoin="round" stroke-linecap="butt" stroke-miterlimit="4" stroke-width="1.6" d="M9.333 2.667h13.333c2.946 0 5.333 2.388 5.333 5.333v16c0 2.946-2.388 5.333-5.333 5.333h-13.333c-2.946 0-5.333-2.388-5.333-5.333v-16c0-2.946 2.388-5.333 5.333-5.333z"></path>
<path fill="none" stroke-linejoin="miter" stroke-linecap="square" stroke-miterlimit="4" stroke-width="1.6" d="M4.364 11.333h23.273"></path>
<path fill="none" stroke-linejoin="miter" stroke-linecap="square" stroke-miterlimit="4" stroke-width="1.6" d="M16 21.333v7.333"></path>
<path fill="none" stroke-linejoin="round" stroke-linecap="round" stroke-miterlimit="4" stroke-width="1.6" d="M17.333 6.667c0 0.736-0.597 1.333-1.333 1.333s-1.333-0.597-1.333-1.333"></path>
<path fill="none" stroke-linejoin="round" stroke-linecap="round" stroke-miterlimit="4" stroke-width="1.6" d="M17.333 14.667c0 0.736-0.597 1.333-1.333 1.333s-1.333-0.597-1.333-1.333"></path>
</symbol>
<symbol id="i-cat-meat" viewBox="0 0 32 32">
<path fill="none" stroke-linejoin="miter" stroke-linecap="round" stroke-miterlimit="4" stroke-width="1.6" d="M16.856 28.134c1.274 0.852 2.689 1.199 4.311 1.199 4.547 0 8.233-3.88 8.233-8.667 0-1.218-0.239-2.724-0.67-4.291l-0.196-0.675c-1.351-4.402-4.143-9.035-7.367-9.035-0.979 0-1.919 0.427-2.79 1.146"></path>
<path fill="none" stroke-linejoin="miter" stroke-linecap="round" stroke-miterlimit="4" stroke-width="1.6" d="M21.733 19.137c0-1.433-0.277-3.204-0.776-5.048l-0.227-0.794c-1.565-5.179-4.797-10.629-8.53-10.629s-6.966 5.45-8.53 10.629l-0.227 0.794c-0.499 1.844-0.776 3.614-0.776 5.048 0 5.631 4.268 10.196 9.533 10.196s9.533-4.565 9.533-10.196z"></path>
</symbol>
<symbol id="i-cat-rice" viewBox="0 0 32 32">
<path fill="none" stroke-linejoin="miter" stroke-linecap="round" stroke-miterlimit="4" stroke-width="1.6" d="M15.852 27.587c0.056 0.446 0.061 0.896 0.015 1.342l-0.044 0.334c-3.248 0.406-6.209-1.897-6.616-5.145-0.056-0.446-0.061-0.896-0.015-1.342l0.044-0.334c3.248-0.406 6.209 1.897 6.616 5.145zM15.969 20.884c0.056 0.446 0.061 0.896 0.015 1.342l-0.044 0.334c-3.248 0.406-6.209-1.897-6.616-5.145-0.056-0.446-0.061-0.896-0.015-1.342l0.044-0.334c3.248-0.406 6.209 1.897 6.616 5.145zM16.086 14.181c0.056 0.446 0.061 0.896 0.015 1.342l-0.044 0.334c-3.248 0.406-6.209-1.897-6.616-5.145-0.056-0.446-0.061-0.896-0.015-1.342l0.044-0.334c3.248-0.406 6.209 1.897 6.616 5.145zM17.733 15.886c-0.446 0.056-0.896 0.061-1.342 0.015l-0.334-0.044c-0.406-3.247 1.897-6.209 5.144-6.616 0.446-0.056 0.896-0.061 1.342-0.015l0.334 0.044c0.406 3.247-1.897 6.209-5.144 6.615zM17.616 22.589c-0.446 0.056-0.896 0.061-1.342 0.015l-0.334-0.044c-0.406-3.247 1.897-6.209 5.144-6.616 0.446-0.056 0.896-0.061 1.342-0.015l0.334 0.044c0.406 3.247-1.897 6.209-5.144 6.615zM17.499 29.292c-0.446 0.056-0.896 0.061-1.342 0.015l-0.334-0.044c-0.406-3.247 1.897-6.209 5.144-6.616 0.446-0.056 0.896-0.061 1.342-0.015l0.334 0.044c0.406 3.247-1.897 6.209-5.144 6.616zM17.328 10.959c-0.276 0.355-0.591 0.676-0.939 0.959l-0.267 0.205c-2.583-2.009-3.049-5.732-1.040-8.315 0.345-0.443 0.751-0.835 1.206-1.164 2.584 2.009 3.049 5.732 1.040 8.316z"></path>
</symbol>
<symbol id="i-cat-sauce" viewBox="0 0 32 32">
<path fill="none" stroke-linejoin="miter" stroke-linecap="butt" stroke-miterlimit="4" stroke-width="1.6" d="M19.394 5.598c-0.209 2.843 0.484 4.668 2.080 5.475 2.030 0.948 3.095 2.149 3.195 3.603v11.324c0 1.841-1.791 3.333-4 3.333h-9.333c-2.209 0-4-1.492-4-3.333 0-3.398 0-5.947 0-7.646 0-0.523 0-1.308 0-2.354v-1.324c-0.046-1.229 0.778-2.334 2.473-3.314 2.542-1.47 2.952-2.172 2.952-5.706"></path>
<path fill="none" stroke-linejoin="miter" stroke-linecap="butt" stroke-miterlimit="4" stroke-width="1.6" d="M12.62 2.533h6.764c0.736 0 1.333 0.597 1.333 1.333v0.4c0 0.736-0.597 1.333-1.333 1.333h-6.764c-0.736 0-1.333-0.597-1.333-1.333v-0.4c0-0.736 0.597-1.333 1.333-1.333z"></path>
<path fill="none" stroke-linejoin="miter" stroke-linecap="butt" stroke-miterlimit="4" stroke-width="1.6" d="M11.832 18.8h8.339c0.736 0 1.333 0.597 1.333 1.333v3.067c0 0.736-0.597 1.333-1.333 1.333h-8.339c-0.736 0-1.333-0.597-1.333-1.333v-3.067c0-0.736 0.597-1.333 1.333-1.333z"></path>
<path fill="none" stroke-linejoin="miter" stroke-linecap="square" stroke-miterlimit="4" stroke-width="1.6" d="M8.123 14h15.758"></path>
</symbol>
<symbol id="i-cat-seafood" viewBox="0 0 24 24">
<g stroke="currentColor" fill="none" fill-rule="evenodd" stroke-dasharray="0 0" stroke-linecap="round"><path d="M16.05 18.726c-.971-2.177-3.445-3.355-5.838-2.78l-.344.082c0 1.49 1.259 2.698 2.81 2.698-1.49 0-2.708 1.113-2.804 2.52l-.006.178.344.082c2.314.555 4.702-.527 5.737-2.566l.102-.214zm.661-3.488c.26-1.367-.653-2.685-2.065-2.987a32.935 32.935 0 01-4.935-1.463l-.405-.155c-1.697-.652-2.81-2.23-2.81-3.985v-.332h6.787c1.825 0 3.63.368 5.297 1.08l.411.175c1.337.57 2.325 1.7 2.68 3.062a5.797 5.797 0 01-.474 4.148l-.088.168a6.754 6.754 0 01-3.434 3.109l-1.624.668.66-3.488zm.807-8.243l-3.162 2.762-.2.166a4.997 4.997 0 01-4.614.794l.196.058M6.496 6.316c-1.241 0-2.248-.966-2.248-2.158V3.08m5.62 3.237h-5.62C3.007 6.316 2 5.35 2 4.158V2m19.84 10.548l-.124.19c-.893 1.311-2.467 2.1-4.155 1.998l-.807-.049m4.39-5.282l-2.033 1.734-.219.176a5.224 5.224 0 01-3.965.988" stroke-width="1.2" stroke-linejoin="round"/><path stroke-width="2" d="M10.992 8.474h.113"/></g>
</symbol>
<symbol id="i-cat-set" viewBox="0 0 32 32">
<path fill="none" stroke-linejoin="miter" stroke-linecap="butt" stroke-miterlimit="4" stroke-width="1.6" d="M3.294 25.369h25.946"></path>
<path fill="none" stroke-linejoin="miter" stroke-linecap="butt" stroke-miterlimit="4" stroke-width="1.6" d="M15.69 12.036h0.432c1.473 0 2.667 1.194 2.667 2.667v0.216h-5.766v-0.216c0-1.473 1.194-2.667 2.667-2.667z"></path>
<path fill="none" stroke-linejoin="miter" stroke-linecap="butt" stroke-miterlimit="4" stroke-width="1.6" d="M15.906 10.629c1.592 0 2.883-1.291 2.883-2.883 0-1.061-0.961-2.755-2.883-5.079-1.922 2.325-2.883 4.018-2.883 5.079 0 1.592 1.291 2.883 2.883 2.883z"></path>
<path fill="none" stroke-linejoin="round" stroke-linecap="round" stroke-miterlimit="4" stroke-width="1.6" d="M2.933 18.883c0 1.194 0.968 2.162 2.162 2.162s2.162-0.968 2.162-2.162"></path>
<path fill="none" stroke-linejoin="round" stroke-linecap="round" stroke-miterlimit="4" stroke-width="1.6" d="M7.258 18.883c0 1.194 0.968 2.162 2.162 2.162s2.162-0.968 2.162-2.162"></path>
<path fill="none" stroke-linejoin="round" stroke-linecap="round" stroke-miterlimit="4" stroke-width="1.6" d="M11.582 18.883c0 1.194 0.968 2.162 2.162 2.162s2.162-0.968 2.162-2.162"></path>
<path fill="none" stroke-linejoin="round" stroke-linecap="round" stroke-miterlimit="4" stroke-width="1.6" d="M15.906 18.883c0 1.194 0.968 2.162 2.162 2.162s2.162-0.968 2.162-2.162"></path>
<path fill="none" stroke-linejoin="round" stroke-linecap="round" stroke-miterlimit="4" stroke-width="1.6" d="M20.231 18.883c0 1.194 0.968 2.162 2.162 2.162s2.162-0.968 2.162-2.162"></path>
<path fill="none" stroke-linejoin="round" stroke-linecap="round" stroke-miterlimit="4" stroke-width="1.6" d="M24.555 18.883c0 1.194 0.968 2.162 2.162 2.162s2.162-0.968 2.162-2.162"></path>
<path fill="none" stroke-linejoin="miter" stroke-linecap="butt" stroke-miterlimit="4" stroke-width="1.6" d="M5.6 14.919h20.613c1.473 0 2.667 1.194 2.667 2.667v9.081c0 1.473-1.194 2.667-2.667 2.667h-20.613c-1.473 0-2.667-1.194-2.667-2.667v-9.081c0-1.473 1.194-2.667 2.667-2.667z"></path>
</symbol>
<symbol id="i-cat-snack" viewBox="0 0 32 32">
<path fill="none" stroke-linejoin="round" stroke-linecap="round" stroke-miterlimit="4" stroke-width="1.6" d="M26.606 19.94l-1.517 6.738c-0.381 1.709-1.876 2.922-3.601 2.922h-9.963c-1.787 0-3.318-1.3-3.634-3.086l-1.178-6.573"></path>
<path fill="none" stroke-linejoin="round" stroke-linecap="round" stroke-miterlimit="4" stroke-width="1.6" d="M10.667 19.6l1.557 7.174"></path>
<path fill="none" stroke-linejoin="round" stroke-linecap="round" stroke-miterlimit="4" stroke-width="1.6" d="M22.545 20.23l-1.435 6.543"></path>
<path fill="none" stroke-linejoin="round" stroke-linecap="round" stroke-miterlimit="4" stroke-width="1.6" d="M16.667 19.6v7.174"></path>
<path fill="none" stroke-linejoin="miter" stroke-linecap="butt" stroke-miterlimit="4" stroke-width="1.6" d="M23.605 6.267c0 1.767-1.433 3.2-3.2 3.2s-3.2-1.433-3.2-3.2c0-1.767 1.433-3.2 3.2-3.2s3.2 1.433 3.2 3.2z"></path>
<path fill="none" stroke-linejoin="round" stroke-linecap="round" stroke-miterlimit="4" stroke-width="1.6" d="M17.298 4.941c-6.882-0.534-10.481 1.66-10.798 6.581-2.556-0.213-3.833 1.152-3.833 4.096 0 4.415 4.646 5.398 6.912 2.824 2.46 1.692 4.617 1.723 6.468 0.094 1.116 1.59 2.326 2.469 3.629 2.635 1.954 0.249 3.415-1.727 3.894-2.557s3.255 3.558 5.808-0.829c1.017-2.585 0.071-4.381-2.838-5.388 0.535-2.641-0.455-4.448-2.971-5.421"></path>
<path fill="none" stroke-linejoin="round" stroke-linecap="round" stroke-miterlimit="4" stroke-width="1.6" d="M20.667 5.981c0.823-1.928 2.521-3.055 5.094-3.38"></path>
</symbol>
<symbol id="i-cat-veggie" viewBox="0 0 32 32">
<path fill="none" stroke-linejoin="miter" stroke-linecap="butt" stroke-miterlimit="4" stroke-width="1.6" d="M19.817 9.221c-1.34 3.056-4.803 4.584-10.39 4.584-6.036 0.691-8.030 4.174-5.984 10.449 2.178 4.777 6.023 6.411 11.535 4.903 3.098-1.391 5.649-3.626 7.653-6.706s3.452-5.962 4.346-8.647"></path>
<path fill="none" stroke-linejoin="round" stroke-linecap="round" stroke-miterlimit="4" stroke-width="1.6" d="M26.115 11.661l1.94 4.691c2.282-3.341 1.903-6.388-1.139-9.141 1.977-2.737 2.249-4.324 0.815-4.759-2.151-0.653-1.616 0.881-3.001 3.528-2.711-1.086-5.453-0.171-8.224 2.745 3.576 0.402 5.365 0.602 5.365 0.602-0.548 2.768-0.653 4.386-0.315 4.855s1.857-0.372 4.559-2.521z"></path>
</symbol>
</defs>
</svg>
