<svg xmlns="http://www.w3.org/2000/svg" xmlns:xlink="http://www.w3.org/1999/xlink" width="20" height="20" viewBox="0 0 20 20">
    <defs>
        <path id="0swes9wwia" d="M16.55 6.233c-.197-.26-.507-.409-.833-.4h-1.55V5c0-1.38-1.12-2.5-2.5-2.5H3.333c-1.38 0-2.5 1.12-2.5 2.5v8.333c0 1.381 1.12 2.5 2.5 2.5h.15c.36.989 1.299 1.647 2.35 1.647 1.052 0 1.991-.658 2.35-1.647h2.8c.356.995 1.298 1.659 2.354 1.659 1.057 0 2-.664 2.355-1.659.047.004.094.004.141 0h2.334c.552 0 1-.447 1-1v-4.775c.002-.216-.068-.428-.2-.6L16.55 6.233zm-10.717 9.6C5.373 15.833 5 15.46 5 15c0-.46.373-.833.833-.833.46 0 .834.373.834.833 0 .46-.373.833-.834.833zm7.5 0c-.46 0-.833-.373-.833-.833 0-.46.373-.833.833-.833.46 0 .834.373.834.833 0 .46-.373.833-.834.833zm4.167-1.666h-1.667c-.047-.004-.094-.004-.141 0-.356-.995-1.298-1.659-2.354-1.659-1.057 0-2 .664-2.355 1.659h-2.8c-.359-.989-1.298-1.647-2.35-1.647-1.051 0-1.99.658-2.35 1.647h-.15c-.46 0-.833-.373-.833-.834V5c0-.46.373-.833.833-.833h8.334c.46 0 .833.373.833.833v5.833c0 .46.373.834.833.834.46 0 .834-.373.834-.834V7.5h1.25l2.083 2.775v3.892z"/>
    </defs>
    <g fill="none" fill-rule="evenodd">
        <g>
            <g transform="translate(-15 -1143) translate(15 1143)">
                <mask id="ag5bmzlgib" fill="#fff">
                    <use xlink:href="#0swes9wwia"/>
                </mask>
                <use fill="#0E1317" fill-rule="nonzero" xlink:href="#0swes9wwia"/>
                <g fill="#d5d5d5" mask="url(#ag5bmzlgib)">
                    <path d="M0 0H20V20H0z"/>
                </g>
            </g>
        </g>
    </g>
</svg>
