<!-- Generated by IcoMoon.io -->
<svg version="1.1" xmlns="http://www.w3.org/2000/svg" width="32" height="32" viewBox="0 0 32 32">
<title>i-cat-health</title>
<path fill="none" stroke="#555" stroke-linejoin="round" stroke-linecap="butt" stroke-miterlimit="4" stroke-width="1.6" d="M8.219 2.667h15.429v5.143h-15.429v-5.143z"></path>
<path fill="none" stroke="#555" stroke-linejoin="miter" stroke-linecap="butt" stroke-miterlimit="4" stroke-width="1.6" d="M10.148 7.81h11.571v3.857h-11.571v-3.857z"></path>
<path fill="none" stroke="#555" stroke-linejoin="miter" stroke-linecap="butt" stroke-miterlimit="4" stroke-width="1.6" d="M8.267 11.667h15.333c0.736 0 1.333 0.597 1.333 1.333v15.333c0 0.736-0.597 1.333-1.333 1.333h-15.333c-0.736 0-1.333-0.597-1.333-1.333v-15.333c0-0.736 0.597-1.333 1.333-1.333z"></path>
<path fill="none" stroke="#555" stroke-linejoin="miter" stroke-linecap="butt" stroke-miterlimit="4" stroke-width="1.6" d="M16.6 16.324l0.533 3.143 2.61 0 0.533 1.867-3.143 0.533 0 2.61-1.867 0.533-0.534-3.143-2.609 0-0.533-1.867 3.143-0.534 0-2.609 1.867-0.533z"></path>
</svg>
