<!-- Generated by IcoMoon.io -->
<svg version="1.1" xmlns="http://www.w3.org/2000/svg" width="32" height="32" viewBox="0 0 32 32">
<title>i-cat-meat</title>
<path fill="none" stroke="#555" stroke-linejoin="miter" stroke-linecap="round" stroke-miterlimit="4" stroke-width="1.6" d="M16.856 28.134c1.274 0.852 2.689 1.199 4.311 1.199 4.547 0 8.233-3.88 8.233-8.667 0-1.218-0.239-2.724-0.67-4.291l-0.196-0.675c-1.351-4.402-4.143-9.035-7.367-9.035-0.979 0-1.919 0.427-2.79 1.146"></path>
<path fill="none" stroke="#555" stroke-linejoin="miter" stroke-linecap="round" stroke-miterlimit="4" stroke-width="1.6" d="M21.733 19.137c0-1.433-0.277-3.204-0.776-5.048l-0.227-0.794c-1.565-5.179-4.797-10.629-8.53-10.629s-6.966 5.45-8.53 10.629l-0.227 0.794c-0.499 1.844-0.776 3.614-0.776 5.048 0 5.631 4.268 10.196 9.533 10.196s9.533-4.565 9.533-10.196z"></path>
</svg>
