<!-- Generated by IcoMoon.io -->
<svg version="1.1" xmlns="http://www.w3.org/2000/svg" width="32" height="32" viewBox="0 0 32 32">
<title>i-cat-set</title>
<path fill="none" stroke="#555" stroke-linejoin="miter" stroke-linecap="butt" stroke-miterlimit="4" stroke-width="1.6" d="M3.294 25.369h25.946"></path>
<path fill="none" stroke="#555" stroke-linejoin="miter" stroke-linecap="butt" stroke-miterlimit="4" stroke-width="1.6" d="M15.69 12.036h0.432c1.473 0 2.667 1.194 2.667 2.667v0.216h-5.766v-0.216c0-1.473 1.194-2.667 2.667-2.667z"></path>
<path fill="none" stroke="#555" stroke-linejoin="miter" stroke-linecap="butt" stroke-miterlimit="4" stroke-width="1.6" d="M15.906 10.629c1.592 0 2.883-1.291 2.883-2.883 0-1.061-0.961-2.755-2.883-5.079-1.922 2.325-2.883 4.018-2.883 5.079 0 1.592 1.291 2.883 2.883 2.883z"></path>
<path fill="none" stroke="#555" stroke-linejoin="round" stroke-linecap="round" stroke-miterlimit="4" stroke-width="1.6" d="M2.933 18.883c0 1.194 0.968 2.162 2.162 2.162s2.162-0.968 2.162-2.162"></path>
<path fill="none" stroke="#555" stroke-linejoin="round" stroke-linecap="round" stroke-miterlimit="4" stroke-width="1.6" d="M7.258 18.883c0 1.194 0.968 2.162 2.162 2.162s2.162-0.968 2.162-2.162"></path>
<path fill="none" stroke="#555" stroke-linejoin="round" stroke-linecap="round" stroke-miterlimit="4" stroke-width="1.6" d="M11.582 18.883c0 1.194 0.968 2.162 2.162 2.162s2.162-0.968 2.162-2.162"></path>
<path fill="none" stroke="#555" stroke-linejoin="round" stroke-linecap="round" stroke-miterlimit="4" stroke-width="1.6" d="M15.906 18.883c0 1.194 0.968 2.162 2.162 2.162s2.162-0.968 2.162-2.162"></path>
<path fill="none" stroke="#555" stroke-linejoin="round" stroke-linecap="round" stroke-miterlimit="4" stroke-width="1.6" d="M20.231 18.883c0 1.194 0.968 2.162 2.162 2.162s2.162-0.968 2.162-2.162"></path>
<path fill="none" stroke="#555" stroke-linejoin="round" stroke-linecap="round" stroke-miterlimit="4" stroke-width="1.6" d="M24.555 18.883c0 1.194 0.968 2.162 2.162 2.162s2.162-0.968 2.162-2.162"></path>
<path fill="none" stroke="#555" stroke-linejoin="miter" stroke-linecap="butt" stroke-miterlimit="4" stroke-width="1.6" d="M5.6 14.919h20.613c1.473 0 2.667 1.194 2.667 2.667v9.081c0 1.473-1.194 2.667-2.667 2.667h-20.613c-1.473 0-2.667-1.194-2.667-2.667v-9.081c0-1.473 1.194-2.667 2.667-2.667z"></path>
</svg>
