<!-- Generated by IcoMoon.io -->
<svg version="1.1" xmlns="http://www.w3.org/2000/svg" width="32" height="32" viewBox="0 0 32 32">
<title>i-cat-rice</title>
<path fill="none" stroke="#555" stroke-linejoin="miter" stroke-linecap="round" stroke-miterlimit="4" stroke-width="1.6" d="M15.852 27.587c0.056 0.446 0.061 0.896 0.015 1.342l-0.044 0.334c-3.248 0.406-6.209-1.897-6.616-5.145-0.056-0.446-0.061-0.896-0.015-1.342l0.044-0.334c3.248-0.406 6.209 1.897 6.616 5.145zM15.969 20.884c0.056 0.446 0.061 0.896 0.015 1.342l-0.044 0.334c-3.248 0.406-6.209-1.897-6.616-5.145-0.056-0.446-0.061-0.896-0.015-1.342l0.044-0.334c3.248-0.406 6.209 1.897 6.616 5.145zM16.086 14.181c0.056 0.446 0.061 0.896 0.015 1.342l-0.044 0.334c-3.248 0.406-6.209-1.897-6.616-5.145-0.056-0.446-0.061-0.896-0.015-1.342l0.044-0.334c3.248-0.406 6.209 1.897 6.616 5.145zM17.733 15.886c-0.446 0.056-0.896 0.061-1.342 0.015l-0.334-0.044c-0.406-3.247 1.897-6.209 5.144-6.616 0.446-0.056 0.896-0.061 1.342-0.015l0.334 0.044c0.406 3.247-1.897 6.209-5.144 6.615zM17.616 22.589c-0.446 0.056-0.896 0.061-1.342 0.015l-0.334-0.044c-0.406-3.247 1.897-6.209 5.144-6.616 0.446-0.056 0.896-0.061 1.342-0.015l0.334 0.044c0.406 3.247-1.897 6.209-5.144 6.615zM17.499 29.292c-0.446 0.056-0.896 0.061-1.342 0.015l-0.334-0.044c-0.406-3.247 1.897-6.209 5.144-6.616 0.446-0.056 0.896-0.061 1.342-0.015l0.334 0.044c0.406 3.247-1.897 6.209-5.144 6.616zM17.328 10.959c-0.276 0.355-0.591 0.676-0.939 0.959l-0.267 0.205c-2.583-2.009-3.049-5.732-1.040-8.315 0.345-0.443 0.751-0.835 1.206-1.164 2.584 2.009 3.049 5.732 1.040 8.316z"></path>
</svg>
