<!-- Generated by IcoMoon.io -->
<svg version="1.1" xmlns="http://www.w3.org/2000/svg" width="32" height="32" viewBox="0 0 32 32">
<title>i-cat-veggie</title>
<path fill="none" stroke="#555" stroke-linejoin="miter" stroke-linecap="butt" stroke-miterlimit="4" stroke-width="1.6" d="M19.817 9.221c-1.34 3.056-4.803 4.584-10.39 4.584-6.036 0.691-8.030 4.174-5.984 10.449 2.178 4.777 6.023 6.411 11.535 4.903 3.098-1.391 5.649-3.626 7.653-6.706s3.452-5.962 4.346-8.647"></path>
<path fill="none" stroke="#555" stroke-linejoin="round" stroke-linecap="round" stroke-miterlimit="4" stroke-width="1.6" d="M26.115 11.661l1.94 4.691c2.282-3.341 1.903-6.388-1.139-9.141 1.977-2.737 2.249-4.324 0.815-4.759-2.151-0.653-1.616 0.881-3.001 3.528-2.711-1.086-5.453-0.171-8.224 2.745 3.576 0.402 5.365 0.602 5.365 0.602-0.548 2.768-0.653 4.386-0.315 4.855s1.857-0.372 4.559-2.521z"></path>
</svg>
