<!-- Generated by IcoMoon.io -->
<svg version="1.1" xmlns="http://www.w3.org/2000/svg" width="32" height="32" viewBox="0 0 32 32">
<title>i-cat-living</title>
<path fill="none" stroke="#555" stroke-linejoin="miter" stroke-linecap="square" stroke-miterlimit="4" stroke-width="1.6" d="M4.364 20.667h23.273"></path>
<path fill="none" stroke="#555" stroke-linejoin="round" stroke-linecap="butt" stroke-miterlimit="4" stroke-width="1.6" d="M9.333 2.667h13.333c2.946 0 5.333 2.388 5.333 5.333v16c0 2.946-2.388 5.333-5.333 5.333h-13.333c-2.946 0-5.333-2.388-5.333-5.333v-16c0-2.946 2.388-5.333 5.333-5.333z"></path>
<path fill="none" stroke="#555" stroke-linejoin="miter" stroke-linecap="square" stroke-miterlimit="4" stroke-width="1.6" d="M4.364 11.333h23.273"></path>
<path fill="none" stroke="#555" stroke-linejoin="miter" stroke-linecap="square" stroke-miterlimit="4" stroke-width="1.6" d="M16 21.333v7.333"></path>
<path fill="none" stroke="#555" stroke-linejoin="round" stroke-linecap="round" stroke-miterlimit="4" stroke-width="1.6" d="M17.333 6.667c0 0.736-0.597 1.333-1.333 1.333s-1.333-0.597-1.333-1.333"></path>
<path fill="none" stroke="#555" stroke-linejoin="round" stroke-linecap="round" stroke-miterlimit="4" stroke-width="1.6" d="M17.333 14.667c0 0.736-0.597 1.333-1.333 1.333s-1.333-0.597-1.333-1.333"></path>
</svg>
