<!-- Generated by IcoMoon.io -->
<svg version="1.1" xmlns="http://www.w3.org/2000/svg" width="32" height="32" viewBox="0 0 32 32">
<title>i-cat-snack</title>
<path fill="none" stroke="#555" stroke-linejoin="round" stroke-linecap="round" stroke-miterlimit="4" stroke-width="1.6" d="M26.606 19.94l-1.517 6.738c-0.381 1.709-1.876 2.922-3.601 2.922h-9.963c-1.787 0-3.318-1.3-3.634-3.086l-1.178-6.573"></path>
<path fill="none" stroke="#555" stroke-linejoin="round" stroke-linecap="round" stroke-miterlimit="4" stroke-width="1.6" d="M10.667 19.6l1.557 7.174"></path>
<path fill="none" stroke="#555" stroke-linejoin="round" stroke-linecap="round" stroke-miterlimit="4" stroke-width="1.6" d="M22.545 20.23l-1.435 6.543"></path>
<path fill="none" stroke="#555" stroke-linejoin="round" stroke-linecap="round" stroke-miterlimit="4" stroke-width="1.6" d="M16.667 19.6v7.174"></path>
<path fill="none" stroke="#555" stroke-linejoin="miter" stroke-linecap="butt" stroke-miterlimit="4" stroke-width="1.6" d="M23.605 6.267c0 1.767-1.433 3.2-3.2 3.2s-3.2-1.433-3.2-3.2c0-1.767 1.433-3.2 3.2-3.2s3.2 1.433 3.2 3.2z"></path>
<path fill="none" stroke="#555" stroke-linejoin="round" stroke-linecap="round" stroke-miterlimit="4" stroke-width="1.6" d="M17.298 4.941c-6.882-0.534-10.481 1.66-10.798 6.581-2.556-0.213-3.833 1.152-3.833 4.096 0 4.415 4.646 5.398 6.912 2.824 2.46 1.692 4.617 1.723 6.468 0.094 1.116 1.59 2.326 2.469 3.629 2.635 1.954 0.249 3.415-1.727 3.894-2.557s3.255 3.558 5.808-0.829c1.017-2.585 0.071-4.381-2.838-5.388 0.535-2.641-0.455-4.448-2.971-5.421"></path>
<path fill="none" stroke="#555" stroke-linejoin="round" stroke-linecap="round" stroke-miterlimit="4" stroke-width="1.6" d="M20.667 5.981c0.823-1.928 2.521-3.055 5.094-3.38"></path>
</svg>
