<svg width="24" height="24" xmlns="http://www.w3.org/2000/svg"><g stroke="currentColor" fill="none" fill-rule="evenodd" stroke-dasharray="0 0" stroke-linecap="round"><path d="M16.05 18.726c-.971-2.177-3.445-3.355-5.838-2.78l-.344.082c0 1.49 1.259 2.698 2.81 2.698-1.49 0-2.708 1.113-2.804 2.52l-.006.178.344.082c2.314.555 4.702-.527 5.737-2.566l.102-.214zm.661-3.488c.26-1.367-.653-2.685-2.065-2.987a32.935 32.935 0 01-4.935-1.463l-.405-.155c-1.697-.652-2.81-2.23-2.81-3.985v-.332h6.787c1.825 0 3.63.368 5.297 1.08l.411.175c1.337.57 2.325 1.7 2.68 3.062a5.797 5.797 0 01-.474 4.148l-.088.168a6.754 6.754 0 01-3.434 3.109l-1.624.668.66-3.488zm.807-8.243l-3.162 2.762-.2.166a4.997 4.997 0 01-4.614.794l.196.058M6.496 6.316c-1.241 0-2.248-.966-2.248-2.158V3.08m5.62 3.237h-5.62C3.007 6.316 2 5.35 2 4.158V2m19.84 10.548l-.124.19c-.893 1.311-2.467 2.1-4.155 1.998l-.807-.049m4.39-5.282l-2.033 1.734-.219.176a5.224 5.224 0 01-3.965.988" stroke-width="1.2" stroke-linejoin="round"/><path stroke-width="2" d="M10.992 8.474h.113"/></g></svg>