<!-- Generated by IcoMoon.io -->
<svg version="1.1" xmlns="http://www.w3.org/2000/svg" width="32" height="32" viewBox="0 0 32 32">
<title>i-cat-sauce</title>
<path fill="none" stroke="#555" stroke-linejoin="miter" stroke-linecap="butt" stroke-miterlimit="4" stroke-width="1.6" d="M19.394 5.598c-0.209 2.843 0.484 4.668 2.080 5.475 2.030 0.948 3.095 2.149 3.195 3.603v11.324c0 1.841-1.791 3.333-4 3.333h-9.333c-2.209 0-4-1.492-4-3.333 0-3.398 0-5.947 0-7.646 0-0.523 0-1.308 0-2.354v-1.324c-0.046-1.229 0.778-2.334 2.473-3.314 2.542-1.47 2.952-2.172 2.952-5.706"></path>
<path fill="none" stroke="#555" stroke-linejoin="miter" stroke-linecap="butt" stroke-miterlimit="4" stroke-width="1.6" d="M12.62 2.533h6.764c0.736 0 1.333 0.597 1.333 1.333v0.4c0 0.736-0.597 1.333-1.333 1.333h-6.764c-0.736 0-1.333-0.597-1.333-1.333v-0.4c0-0.736 0.597-1.333 1.333-1.333z"></path>
<path fill="none" stroke="#555" stroke-linejoin="miter" stroke-linecap="butt" stroke-miterlimit="4" stroke-width="1.6" d="M11.832 18.8h8.339c0.736 0 1.333 0.597 1.333 1.333v3.067c0 0.736-0.597 1.333-1.333 1.333h-8.339c-0.736 0-1.333-0.597-1.333-1.333v-3.067c0-0.736 0.597-1.333 1.333-1.333z"></path>
<path fill="none" stroke="#555" stroke-linejoin="miter" stroke-linecap="square" stroke-miterlimit="4" stroke-width="1.6" d="M8.123 14h15.758"></path>
</svg>
