<svg xmlns="http://www.w3.org/2000/svg" xmlns:xlink="http://www.w3.org/1999/xlink" width="16" height="16" viewBox="0 0 16 16">
    <defs>
        <path id="bojqgyab9a" d="M13.333 2c1.105 0 2 .895 2 2v8c0 1.105-.895 2-2 2H2.667c-1.105 0-2-.895-2-2V4c0-1.105.895-2 2-2h10.666zM14 7.333H2V12c0 .368.298.667.667.667h10.666c.369 0 .667-.299.667-.667V7.333zm-.667-4H2.667C2.298 3.333 2 3.632 2 4v1.999h12V4c0-.368-.298-.667-.667-.667z"/>
    </defs>
    <g fill="none" fill-rule="evenodd">
        <g>
            <g>
                <g transform="translate(-15 -720) translate(15 683) translate(0 37)">
                    <mask id="es9s3ypllb" fill="#fff">
                        <use xlink:href="#bojqgyab9a"/>
                    </mask>
                    <use fill="#000" xlink:href="#bojqgyab9a"/>
                    <g fill="#999999" mask="url(#es9s3ypllb)">
                        <path d="M0 0H16V16H0z"/>
                    </g>
                </g>
            </g>
        </g>
    </g>
</svg>
