<svg xmlns="http://www.w3.org/2000/svg" xmlns:xlink="http://www.w3.org/1999/xlink" width="16" height="16" viewBox="0 0 16 16">
    <defs>
        <path id="ca871oqiqa" d="M8 .667c4.05 0 7.333 3.283 7.333 7.333 0 4.05-3.283 7.333-7.333 7.333C3.95 15.333.667 12.05.667 8 .667 3.95 3.95.667 8 .667zM8 2C4.686 2 2 4.686 2 8s2.686 6 6 6 6-2.686 6-6-2.686-6-6-6zm.785 2.62c1.446 0 2.442.963 2.442 2.413 0 1.445-1.03 2.412-2.515 2.412H7.394v1.548c0 .483-.274.766-.737.766-.464 0-.738-.283-.738-.766V5.387c0-.483.274-.766.738-.766zm-.39 1.168H7.394v2.505h.996c.845 0 1.338-.45 1.338-1.255 0-.801-.488-1.25-1.333-1.25z"/>
    </defs>
    <g fill="none" fill-rule="evenodd">
        <g>
            <g>
                <g transform="translate(-15 -689) translate(15 683) translate(0 6)">
                    <mask id="atdtjbvahb" fill="#fff">
                        <use xlink:href="#ca871oqiqa"/>
                    </mask>
                    <use fill="#979797" fill-rule="nonzero" xlink:href="#ca871oqiqa"/>
                    <g fill="#999999" mask="url(#atdtjbvahb)">
                        <path d="M0 0H16V16H0z"/>
                    </g>
                </g>
            </g>
        </g>
    </g>
</svg>
