<svg xmlns="http://www.w3.org/2000/svg" xmlns:xlink="http://www.w3.org/1999/xlink" width="24" height="24" viewBox="0 0 24 24">
    <defs>
        <path id="1u5sgn2hxa" d="M3.75 12.5v8.25h16.5v-8.162h1.5V21c0 .647-.492 1.18-1.122 1.244l-.128.006h-17c-.647 0-1.18-.492-1.244-1.122L2.25 21v-8.5h1.5zm8.267-9.436l4.669 4.669-1.061 1.06-2.875-2.875V15.5h-1.5V5.949L8.408 8.794l-1.06-1.061 4.669-4.669z"/>
    </defs>
    <g fill="none" fill-rule="evenodd">
        <g>
            <g>
                <g transform="translate(-330 -531) translate(324 525) translate(6 6)">
                    <g stroke="#444" stroke-width="1.5">
                        <path d="M9 .375L9 11.375M18 8.463v8.412c0 .276-.224.5-.5.5H.5c-.276 0-.5-.224-.5-.5v-8.5h0M4.878 4.139L9.017 0 13.155 4.139" transform="translate(3 4.125)"/>
                    </g>
                    <mask id="2xa3zc91fb" fill="#fff">
                        <use xlink:href="#1u5sgn2hxa"/>
                    </mask>
                    <use fill="#444" fill-rule="nonzero" xlink:href="#1u5sgn2hxa"/>
                    <g fill="#555555" mask="url(#2xa3zc91fb)">
                        <path d="M0 0H24V24H0z"/>
                    </g>
                </g>
            </g>
        </g>
    </g>
</svg>
