<!-- Generated by IcoMoon.io -->
<svg version="1.1" xmlns="http://www.w3.org/2000/svg" width="32" height="32" viewBox="0 0 32 32">
<title>i-cat-fruit</title>
<path fill="none" stroke="currentColor" stroke-linejoin="miter" stroke-linecap="butt" stroke-miterlimit="4" stroke-width="1.6" d="M20.773 7.178c-1.316 0.138-2.752 0.568-4.278 1.347l-0.42 0.214-0.415-0.213c-1.524-0.782-2.955-1.213-4.267-1.351-3.283-0.345-6.076 1.152-7.583 4.128-0.525 1.036-0.867 2.214-1.001 3.476-0.289 2.703 0.397 6.088 1.746 9.063 0.831 1.828 1.906 3.49 3.152 4.729 1.183 1.176 2.517 1.959 3.92 2.106 0.847 0.089 1.731-0.050 2.638-0.472 1.236-0.584 2.228-0.618 3.459 0 0.904 0.421 1.787 0.561 2.629 0.473 1.409-0.147 2.749-0.93 3.942-2.108 1.256-1.239 2.343-2.904 3.188-4.737 1.371-2.973 2.082-6.352 1.815-9.050-0.125-1.266-0.457-2.444-0.972-3.477-1.481-2.973-4.271-4.473-7.552-4.131z"></path>
<path fill="currentColor" d="M24.776 14.388c-0.14 0.723-0.84 1.195-1.563 1.054s-1.195-0.84-1.054-1.563c0.14-0.723 0.84-1.195 1.563-1.054s1.195 0.84 1.054 1.563z"></path>
<path fill="none" stroke="currentColor" stroke-linejoin="round" stroke-linecap="round" stroke-miterlimit="4" stroke-width="1.6" d="M20.654 24.198c2.309-1.803 3.404-4.091 3.287-6.864"></path>
<path fill="none" stroke="currentColor" stroke-linejoin="round" stroke-linecap="round" stroke-miterlimit="4" stroke-width="1.6" d="M15.833 8.659c0.205-2.581 0.991-4.33 2.357-5.247"></path>
</svg>
