<!-- Generated by IcoMoon.io -->
<svg version="1.1" xmlns="http://www.w3.org/2000/svg" width="32" height="32" viewBox="0 0 32 32">
<title>i-cat-hmr</title>
<path fill="none" stroke="#555" stroke-linejoin="miter" stroke-linecap="butt" stroke-miterlimit="4" stroke-width="1.6" d="M20.381 27.364v1.589c0 0.736-0.488 1.333-1.089 1.333h-7.156c-0.601 0-1.089-0.597-1.089-1.333v-1.589"></path>
<path fill="none" stroke="#555" stroke-linejoin="miter" stroke-linecap="butt" stroke-miterlimit="4" stroke-width="1.6" d="M15.824 16.695c1.283-0.59 2.725-0.886 4.325-0.886 5.59 0 7.433 5.54 7.433 4.8"></path>
<path fill="none" stroke="#555" stroke-linejoin="miter" stroke-linecap="butt" stroke-miterlimit="4" stroke-width="1.6" d="M17.765 18.471c0.676-0.183 1.415-0.274 2.217-0.274 3.543 0 4.536 2.125 4.536 2.439"></path>
<path fill="none" stroke="#555" stroke-linejoin="miter" stroke-linecap="butt" stroke-miterlimit="4" stroke-width="1.6" d="M3.497 20.635c2.003-3.2 4.868-4.8 8.594-4.8 5.59 0 7.273 4.202 7.071 4.612"></path>
<path fill="none" stroke="#555" stroke-linejoin="miter" stroke-linecap="butt" stroke-miterlimit="4" stroke-width="1.6" d="M6.877 20.601c1.002-1.586 2.685-2.379 5.047-2.379 3.543 0 4.711 2.746 4.711 2.379 0-0.245-3.253-0.245-9.758 0z"></path>
<path fill="none" stroke="#555" stroke-linejoin="round" stroke-linecap="round" stroke-miterlimit="4" stroke-width="1.6" d="M29.062 20.635c-2.232 3.565-4.872 5.808-7.92 6.729h-10.527c-4.129-1.634-6.779-3.877-7.948-6.729h26.396z"></path>
<path fill="none" stroke="#555" stroke-linejoin="round" stroke-linecap="round" stroke-miterlimit="4" stroke-width="1.6" d="M7.596 6.826v9.771"></path>
<path fill="none" stroke="#555" stroke-linejoin="round" stroke-linecap="round" stroke-miterlimit="4" stroke-width="1.6" d="M12.167 6.826v8.983"></path>
<path fill="none" stroke="#555" stroke-linejoin="round" stroke-linecap="round" stroke-miterlimit="4" stroke-width="1.6" d="M9.881 6.826v8.983"></path>
<path fill="none" stroke="#555" stroke-linejoin="round" stroke-linecap="round" stroke-miterlimit="4" stroke-width="1.6" d="M6.476 7.365h20.317"></path>
<path fill="none" stroke="#555" stroke-linejoin="round" stroke-linecap="round" stroke-miterlimit="4" stroke-width="1.6" d="M6.519 4.892l20.274-2.225"></path>
</svg>
