<svg xmlns="http://www.w3.org/2000/svg" width="88" height="103" viewBox="0 0 88 103">
    <g fill="none" fill-rule="evenodd">
        <g>
            <g>
                <path fill="#999999" d="M87.832 24L79.131 24 79.131 26.231 84.138 26.231 79 32.253 79 34 88 34 88 31.77 82.694 31.77 87.832 25.747zM69.001 16L84 15.994 83.998 12.427 75.156 12.43 83.715 2.794 83.714 0 69.213.006 69.214 3.573 77.558 3.57 69 13.206zM59.533 67.56l-1.874-1.072-.604-.346-.275.628-.22.506c-.88 2.013-2.627 3.264-4.56 3.264-1.934 0-3.681-1.25-4.56-3.263l-.22-.506-.275-.63-.604.347-1.874 1.073-.467.268.212.486.221.506c1.433 3.282 4.332 5.32 7.567 5.32 3.235 0 6.134-2.038 7.566-5.32l.221-.506.213-.486-.467-.268zm-19.874-1.072l-.604-.346-.275.628-.22.506c-.88 2.013-2.627 3.264-4.56 3.264-1.934 0-3.68-1.25-4.56-3.263l-.22-.506-.275-.63-.604.347-1.874 1.073-.467.268.212.486.221.506c1.433 3.282 4.332 5.32 7.567 5.32 3.234 0 6.134-2.038 7.566-5.32l.221-.506.213-.486-.468-.268-1.873-1.073zM42.793 77c-1.658 0-3 1.343-3 3s1.342 3 3 3c1.656 0 3-1.343 3-3s-1.344-3-3-3" transform="translate(-15 -100) translate(15 100)"/>
                <path fill="#eeeeee" fill-rule="nonzero" d="M42.5 20c10.805 0 19.571 8.71 19.571 19.465v6.088h17.806c1.355-.101 2.577.426 3.514 1.267l.172.161c1.109 1.06 1.624 2.596 1.365 4.167l-7.31 39.609c-1.27 6.959-7.278 12.069-14.453 12.243h-41.38c-7.091-.116-13.122-5.194-14.403-12.142L.062 51.09c-.223-1.354.166-2.727 1.045-3.76l.054-.061.047-.067c.884-1.174 2.126-1.606 3.539-1.647l.224-.003H22.93v-6.088c0-10.64 8.581-19.28 19.227-19.462zm13.571 31.5H28.929v.053H6.247l7.036 38.218c.745 4.043 4.207 7.03 8.285 7.22l.267.009h41.257c4.265-.103 7.865-3.165 8.625-7.327l7.036-38.12H56.071V51.5zM42.501 26c-7.5 0-13.572 6.033-13.572 13.465V45.5h27.142v-6.035c0-7.329-5.904-13.297-13.26-13.462z" transform="translate(-15 -100) translate(15 100)"/>
            </g>
        </g>
    </g>
</svg>
